HIERARCHY
ROOT RootJoint
{
    OFFSET   0.000000   0.000000   0.000000
    CHANNELS 6 Xposition Yposition Zposition Xrotation Yrotation Zrotation
    JOINT pelvis_lowerback
    {
        OFFSET   0.000000   0.093605   0.000000
        CHANNELS 3 Xrotation Yrotation Zrotation
        JOINT lowerback_torso
        {
            OFFSET   0.000000   0.100000   0.000000
            CHANNELS 3 Xrotation Yrotation Zrotation
            JOINT torso_head
            {
                OFFSET   0.000000   0.282350   0.000000
                CHANNELS 3 Xrotation Yrotation Zrotation
                End Site
                {
                    OFFSET   0.000000   0.192650   0.000000
                }
            }
            JOINT rTorso_Clavicle
            {
                OFFSET  -0.001000   0.157500   0.000000
                CHANNELS 3 Xrotation Yrotation Zrotation
                JOINT rShoulder
                {
                    OFFSET  -0.117647   0.000000   0.000000
                    CHANNELS 3 Xrotation Yrotation Zrotation
                    JOINT rElbow
                    {
                        OFFSET  -0.245000   0.000000   0.000000
                        CHANNELS 3 Xrotation Yrotation Zrotation
                        JOINT rWrist
                        {
                            OFFSET  -0.240000   0.000000   0.000000
                            CHANNELS 3 Xrotation Yrotation Zrotation
                            End Site
                            {
                                OFFSET  -0.116353  -0.002500   0.000000
                            }
                        }
                    }
                }
            }
            JOINT lTorso_Clavicle
            {
                OFFSET   0.001000   0.157500   0.000000
                CHANNELS 3 Xrotation Yrotation Zrotation
                JOINT lShoulder
                {
                    OFFSET   0.117647   0.000000   0.000000
                    CHANNELS 3 Xrotation Yrotation Zrotation
                    JOINT lElbow
                    {
                        OFFSET   0.245000   0.000000   0.000000
                        CHANNELS 3 Xrotation Yrotation Zrotation
                        JOINT lWrist
                        {
                            OFFSET   0.240000   0.000000   0.000000
                            CHANNELS 3 Xrotation Yrotation Zrotation
                            End Site
                            {
                                OFFSET   0.116353  -0.002500   0.000000
                            }
                        }
                    }
                }
            }
        }
    }
    JOINT rHip
    {
        OFFSET  -0.100000  -0.051395   0.000000
        CHANNELS 3 Xrotation Yrotation Zrotation
        JOINT rKnee
        {
            OFFSET   0.000000  -0.410000   0.000000
            CHANNELS 3 Xrotation Yrotation Zrotation
            JOINT rAnkle
            {
                OFFSET   0.000000  -0.390000   0.000000
                CHANNELS 3 Xrotation Yrotation Zrotation
                JOINT rToeJoint
                {
                    OFFSET   0.000000  -0.050000   0.130000
                    CHANNELS 3 Xrotation Yrotation Zrotation
                    End Site
                    {
                        OFFSET  -0.010000   0.002000   0.060000
                    }
                }
            }
        }
    }
    JOINT lHip
    {
        OFFSET   0.100000  -0.051395   0.000000
        CHANNELS 3 Xrotation Yrotation Zrotation
        JOINT lKnee
        {
            OFFSET   0.000000  -0.410000   0.000000
            CHANNELS 3 Xrotation Yrotation Zrotation
            JOINT lAnkle
            {
                OFFSET   0.000000  -0.390000   0.000000
                CHANNELS 3 Xrotation Yrotation Zrotation
                JOINT lToeJoint
                {
                    OFFSET   0.000000  -0.050000   0.130000
                    CHANNELS 3 Xrotation Yrotation Zrotation
                    End Site
                    {
                        OFFSET   0.010000   0.002000   0.060000
                    }
                }
            }
        }
    }
}
MOTION
Frames: 7
Frame Time:   0.008333
 -2.139951   0.897263   5.272344  -5.788393  -5.560928  -0.939963   2.306152   2.688395  -0.378723   3.214306  -0.886980   2.654983   0.799710  -1.164838   4.379788   3.251808  -1.637339   7.910148   4.174917   8.354217  49.939054  -0.001000  46.368788   0.002958   2.638893   3.783706  -7.961793   4.219926   4.374372  -8.913612   7.986061  -3.984513 -53.550805   0.000056 -22.690490  -0.000665   1.677989  -2.136399   7.374903  17.774783   4.930881  -3.549928  18.275107   0.004002  -0.009929 -11.245558   4.072783  -1.840011 -22.307646   0.000697   0.000626 -14.258834  -8.510427   3.687313  19.701046   0.003942  -0.010289  -5.777907  -0.792322  -2.325959  -1.012943   0.001459  -0.002794
 -2.137502   0.897521   5.278309  -5.714213  -6.165101  -0.662505   2.181359   2.752913  -0.621542   3.239186  -0.784827   2.582637   0.821055  -1.149633   4.450903   3.220679  -1.650120   7.979046   4.231122   8.453440  50.135016  -0.000785  46.063426   0.001198   2.734256   3.986767  -7.908519   4.228494   4.410295  -8.909088   7.981412  -4.002480 -53.502731   0.000045 -22.705885  -0.000484   1.652825  -2.055452   7.393409  17.027565   5.011117  -4.102607  20.213652   0.003099  -0.016389 -11.071205   4.027602  -1.662336 -22.945027   0.000374   0.003331 -14.038204  -8.383550   3.204290  19.910337   0.003501  -0.009429  -5.596728  -0.577691  -2.050675  -0.772147   0.001176  -0.003051
 -2.135094   0.897791   5.284266  -5.677635  -6.679196  -0.373221   2.079046   2.763673  -0.855301   3.285431  -0.720380   2.496608   0.846973  -1.134941   4.512538   3.216550  -1.678128   8.036143   4.306462   8.530083  50.315448  -0.000581  45.758478  -0.000207   2.813392   4.071128  -7.826013   4.220768   4.431616  -8.902606   7.963200  -4.029928 -53.459555   0.000036 -22.728527  -0.000315   1.633024  -2.009799   7.414505  16.273693   5.073737  -4.635092  22.244217   0.002257  -0.021008 -10.859143   3.956002  -1.515774 -23.265723   0.000149   0.004006 -13.763472  -8.273654   2.696602  20.057123   0.003060  -0.008296  -5.450890  -0.379534  -1.787444  -0.561757   0.000962  -0.003070
 -2.132758   0.898030   5.290223  -5.653566  -7.110098  -0.093174   1.978184   2.740203  -1.069695   3.335128  -0.692737   2.413471   0.872704  -1.121611   4.569291   3.234398  -1.726808   8.082371   4.395601   8.585548  50.478826  -0.000373  45.465016  -0.001306   2.881554   4.094436  -7.743031   4.204072   4.443474  -8.896089   7.937985  -4.062092 -53.420471   0.000027 -22.754162  -0.000172   1.617800  -1.992033   7.432892  15.567974   5.139739  -5.137351  24.204031   0.001717  -0.023298 -10.620268   3.887538  -1.389115 -23.169711   0.000148   0.002862 -13.482387  -8.165678   2.195012  20.187494   0.002689  -0.007206  -5.320889  -0.193537  -1.543314  -0.372736   0.000809  -0.002904
 -2.130511   0.898223   5.296157  -5.631885  -7.481008   0.174696   1.876225   2.696946  -1.267721   3.380672  -0.689865   2.336049   0.896142  -1.109327   4.622706   3.266281  -1.788759   8.120722   4.491966   8.625579  50.627379  -0.000180  45.185004  -0.002133   2.941923   4.080586  -7.667390   4.181460   4.448816  -8.888776   7.908468  -4.096563 -53.383632   0.000018 -22.781171  -0.000058   1.605631  -1.993177   7.451210  14.913596   5.211571  -5.612088  26.059913   0.001399  -0.023989 -10.363208   3.827196  -1.278079 -22.717251   0.000269   0.000891 -13.208953  -8.057969   1.707247  20.314872   0.002389  -0.006246  -5.199735  -0.018124  -1.318067  -0.200873   0.000700  -0.002651
 -2.128365   0.898363   5.302046  -5.608547  -7.810134   0.430290   1.773928   2.642929  -1.452203   3.420138  -0.702431   2.264062   0.917016  -1.097918   4.672984   3.305758  -1.857202   8.153597   4.590297   8.655398  50.763423  -0.000014  44.919666  -0.002725   2.996592   4.043833  -7.599095   4.154930   4.449496  -8.880310   7.876359  -4.131936 -53.348122   0.000009 -22.808618   0.000031   1.595634  -2.007275   7.471342  14.307122   5.287531  -6.062260  27.805560   0.001191  -0.023714 -10.094586   3.773594  -1.180597 -21.979167   0.000424  -0.001324 -12.947159  -7.951721   1.235869  20.444055   0.002153  -0.005429  -5.084550   0.147125  -1.110171  -0.043947   0.000620  -0.002372
 -2.126327   0.898451   5.307876  -5.581616  -8.110081   0.673893   1.672372   2.583871  -1.624992   3.453421  -0.724095   2.196862   0.935583  -1.087292   4.720150   3.348421  -1.927511   8.182652   4.687065   8.678740  50.888820   0.000121  44.669597  -0.003117   3.047056   3.994178  -7.536697   4.126018   4.446872  -8.870832   7.842928  -4.167298 -53.313700   0.000001 -22.835881   0.000099   1.587260  -2.030262   7.493725  13.744484   5.365730  -6.490039  29.441705   0.001021  -0.022889  -9.819488   3.724657  -1.095183 -21.016381   0.000561  -0.003513 -12.698015  -7.848109   0.782094  20.576755   0.001966  -0.004747  -4.974035   0.302521  -0.918007   0.099613   0.000559  -0.002100
